# File created by Blade
# Date/Time:  Tue Jan 27 17:21:37 2015
# Frame Rate: 120.000 fps
#------------------------------------------------------
:FULLY-SPECIFIED
:DEGREES
4317
root -1.255754 37.418054 -0.339621 26.553842 22.803672 8.584958
Spine -6.949565 6.010132 -1.571522
Head -6.111457 -2.007094 -13.587355
LeftShoulder -3.092938 -11.594767 6.120321
LeftArm -0.529120 -26.256385 -45.328705
LeftForeArm -1.011650 -0.000000 76.362806
LeftHand -18.545261 -0.000000 51.897775
LeftHandThumb1 -26.253704 0.000000 33.147579
RightShoulder -2.169327 -19.336410 -5.058934
RightArm 14.488804 -16.340276 53.302915
RightForeArm 188.073242 0.000000 37.240386
RightHand -1.455679 -0.000000 5.673331
RightHandThumb1 -24.326973 -0.000000 -32.862282
LeftUpLeg -3.978912 4.947391 10.137313
LeftLeg 14.031719 -0.000000 -0.000000
LeftFoot -6.519726 -0.790780 -24.320268
LeftToeBase 6.895586 -0.000000 -0.000000
RightUpLeg -24.683086 -16.073064 4.768559
RightLeg 5.117998 -0.000000 -0.000000
RightFoot -11.537287 -2.595527 0.453602
RightToeBase 2.483161 -0.000000 -0.000000
4318
root -1.247994 37.419025 -0.361781 26.559415 23.101458 8.617373
Spine -6.854719 5.905929 -1.402053
Head -5.826608 -1.848725 -13.474518
LeftShoulder -3.027822 -11.635292 6.099341
LeftArm -0.382219 -26.266955 -45.551610
LeftForeArm -1.008350 -0.000000 76.348952
LeftHand -18.507773 0.000000 51.842145
LeftHandThumb1 -26.253704 0.000000 33.147579
RightShoulder -2.147527 -19.309844 -5.064318
RightArm 14.491700 -16.346863 53.345315
RightForeArm 188.122764 -0.000000 37.005472
RightHand -1.377964 -0.000000 5.795869
RightHandThumb1 -24.326973 -0.000000 -32.862282
LeftUpLeg -4.539387 5.579070 9.742951
LeftLeg 11.554514 -0.000000 -0.000000
LeftFoot -6.178685 -2.083273 -24.834750
LeftToeBase 6.579131 -0.000000 -0.000000
RightUpLeg -24.681252 -16.226256 4.794173
RightLeg 5.113745 -0.000000 -0.000000
RightFoot -11.539628 -2.706938 0.503627
RightToeBase 2.531277 -0.000000 -0.000000
4319
root -1.239503 37.421451 -0.388539 26.584797 23.394625 8.679214
Spine -6.761072 5.800142 -1.266276
Head -5.505616 -1.654772 -13.327322
LeftShoulder -2.957083 -11.694193 6.085747
LeftArm -0.233317 -26.277723 -45.784576
LeftForeArm -0.981016 -0.000000 76.325538
LeftHand -18.475784 -0.000000 51.738910
LeftHandThumb1 -26.253704 0.000000 33.147579
RightShoulder -2.113720 -19.268046 -5.068593
RightArm 14.493170 -16.325009 53.411037
RightForeArm 188.137874 -0.000000 36.740274
RightHand -1.370624 -0.000000 5.782923
RightHandThumb1 -24.326973 -0.000000 -32.862282
LeftUpLeg -5.200144 6.227144 9.268675
LeftLeg 9.312348 -0.000000 -0.000000
LeftFoot -5.741424 -3.282487 -25.490882
LeftToeBase 6.789820 -0.000000 -0.000000
RightUpLeg -24.703037 -16.413100 4.809896
RightLeg 5.112894 -0.000000 -0.000000
RightFoot -11.520211 -2.878520 0.599570
RightToeBase 2.359457 -0.000000 -0.000000
4320
root -1.231109 37.424111 -0.418565 26.604928 23.694506 8.741940
Spine -6.638013 5.697858 -1.120654
Head -5.178008 -1.510511 -13.199154
LeftShoulder -2.893035 -11.721749 6.076760
LeftArm -0.043574 -26.298946 -46.043348
LeftForeArm -1.010429 -0.000000 76.302664
LeftHand -18.359924 -0.000000 51.583513
LeftHandThumb1 -26.253704 0.000000 33.147579
RightShoulder -2.111110 -19.247058 -5.068636
RightArm 14.554440 -16.256138 53.475116
RightForeArm 188.089761 -0.000000 36.477853
RightHand -1.353254 0.000000 5.628585
RightHandThumb1 -24.326973 -0.000000 -32.862282
LeftUpLeg -5.941138 6.804042 8.761932
LeftLeg 7.322412 -0.000000 -0.000000
LeftFoot -5.115770 -4.467568 -26.217654
LeftToeBase 6.301054 -0.000000 -0.000000
RightUpLeg -24.721883 -16.578097 4.809364
RightLeg 5.123522 -0.000000 -0.000000
RightFoot -11.517221 -2.980848 0.628201
RightToeBase 2.398740 -0.000000 -0.000000
4321
root -1.224245 37.425952 -0.448901 26.521102 24.000657 8.787785
Spine -6.366054 5.610739 -0.954225
Head -4.874872 -1.369060 -13.015903
LeftShoulder -2.796670 -11.784926 6.056996
LeftArm 0.170207 -26.361619 -46.319035
LeftForeArm -0.998093 -0.000000 76.286797
LeftHand -18.323999 -0.000000 51.483341
LeftHandThumb1 -26.253704 0.000000 33.147579
RightShoulder -2.069356 -19.220731 -5.049852
RightArm 14.634836 -16.131694 53.517765
RightForeArm 188.062285 0.000000 36.200191
RightHand -1.385207 -0.000000 5.792448
RightHandThumb1 -24.326973 -0.000000 -32.862282
LeftUpLeg -6.655737 7.269793 8.247616
LeftLeg 5.606683 -0.000000 -0.000000
LeftFoot -4.448293 -5.383195 -26.794189
LeftToeBase 5.516012 -0.000000 -0.000000
RightUpLeg -24.631887 -16.724104 4.784814
RightLeg 5.133443 -0.000000 -0.000000
RightFoot -11.509335 -3.102471 0.618769
RightToeBase 2.362959 -0.000000 -0.000000
4322
root -1.218146 37.427910 -0.486462 26.481552 24.330173 8.831132
Spine -6.134936 5.483569 -0.761828
Head -4.604614 -1.180473 -12.886971
LeftShoulder -2.709505 -11.880928 6.075322
LeftArm 0.314393 -26.414218 -46.628121
LeftForeArm -0.971991 -0.000000 76.299253
LeftHand -18.231764 -0.000000 51.249689
LeftHandThumb1 -26.253704 0.000000 33.147579
RightShoulder -1.989542 -19.152809 -5.085514
RightArm 14.674925 -16.015349 53.609698
RightForeArm 188.124457 -0.000000 35.919857
RightHand -1.388767 -0.000000 5.786204
RightHandThumb1 -24.326973 -0.000000 -32.862282
LeftUpLeg -7.546394 7.624516 7.711033
LeftLeg 4.300876 -0.000000 -0.000000
LeftFoot -4.063020 -6.121935 -27.713475
LeftToeBase 5.284797 -0.000000 -0.000000
RightUpLeg -24.614337 -16.899518 4.801135
RightLeg 5.151484 -0.000000 -0.000000
RightFoot -11.493799 -3.260012 0.681946
RightToeBase 2.340853 -0.000000 -0.000000
4323
root -1.214003 37.427122 -0.521826 26.344543 24.696208 8.835956
Spine -5.790665 5.359827 -0.499691
Head -4.252156 -1.042147 -12.730334
LeftShoulder -2.606834 -12.005297 6.096703
LeftArm 0.480668 -26.460507 -46.970411
LeftForeArm -0.935679 0.000000 76.284520
LeftHand -18.143433 -0.000000 51.115855
LeftHandThumb1 -26.253704 0.000000 33.147579
RightShoulder -1.908793 -19.030674 -5.139318
RightArm 14.691041 -15.871749 53.744834
RightForeArm 188.090000 -0.000000 35.647822
RightHand -1.340382 -0.000000 5.805515
RightHandThumb1 -24.326973 -0.000000 -32.862282
LeftUpLeg -8.482087 7.817258 7.240888
LeftLeg 3.512602 -0.000000 -0.000000
LeftFoot -3.918843 -6.581309 -28.248636
LeftToeBase 5.112915 -0.000000 -0.000000
RightUpLeg -24.486917 -17.048205 4.817040
RightLeg 5.144471 -0.000000 -0.000000
RightFoot -11.467175 -3.453918 0.707964
RightToeBase 2.302973 -0.000000 -0.000000
4324
root -1.211237 37.421429 -0.553975 26.142571 25.078818 8.807431
Spine -5.380088 5.245957 -0.199080
Head -3.914798 -0.888297 -12.590063
LeftShoulder -2.489270 -12.099311 6.068993
LeftArm 0.677678 -26.494420 -47.230945
LeftForeArm -0.983738 -0.000000 76.318276
LeftHand -18.107129 -0.000000 51.013977
LeftHandThumb1 -26.253704 0.000000 33.147579
RightShoulder -1.822300 -18.924065 -5.199892
RightArm 14.735866 -15.728983 53.844867
RightForeArm 188.207438 -0.000000 35.372968
RightHand -1.347138 -0.000000 5.743474
RightHandThumb1 -24.326973 -0.000000 -32.862282
LeftUpLeg -9.497469 7.738300 6.832533
LeftLeg 3.272857 -0.000000 -0.000000
LeftFoot -4.147128 -6.645303 -28.363678
LeftToeBase 4.942102 -0.000000 -0.000000
RightUpLeg -24.303468 -17.234020 4.877980
RightLeg 5.126704 -0.000000 -0.000000
RightFoot -11.499850 -3.638348 0.822055
RightToeBase 2.330231 -0.000000 -0.000000
4325
root -1.205488 37.415206 -0.593106 25.875369 25.463917 8.791559
Spine -4.852477 5.137193 0.119655
Head -3.586959 -0.797026 -12.440383
LeftShoulder -2.363982 -12.244455 6.063907
LeftArm 0.898332 -26.575584 -47.611530
LeftForeArm -0.962101 -0.000000 76.348517
LeftHand -18.039185 0.000000 50.858286
LeftHandThumb1 -26.253704 0.000000 33.147579
RightShoulder -1.720636 -18.810332 -5.298455
RightArm 14.806317 -15.505993 53.997288
RightForeArm 188.239094 -0.000000 35.082317
RightHand -1.349671 -0.000000 5.784476
RightHandThumb1 -24.326973 -0.000000 -32.862282
LeftUpLeg -10.595546 7.648713 6.405478
LeftLeg 3.570636 -0.000000 -0.000000
LeftFoot -4.459400 -6.579208 -27.859966
LeftToeBase 4.903027 -0.000000 -0.000000
RightUpLeg -24.110438 -17.454550 4.907399
RightLeg 5.232548 -0.000000 -0.000000
RightFoot -11.566120 -3.833701 0.760896
RightToeBase 2.341191 -0.000000 -0.000000
4326
root -1.204523 37.407264 -0.632875 25.569024 25.844662 8.747420
Spine -4.272535 5.055042 0.438873
Head -3.299745 -0.688995 -12.237365
LeftShoulder -2.212592 -12.378727 6.102400
LeftArm 1.129396 -26.689594 -48.036993
LeftForeArm -0.964989 -0.000000 76.399381
LeftHand -17.905602 -0.000000 50.655455
LeftHandThumb1 -26.253704 0.000000 33.147579
RightShoulder -1.594952 -18.664780 -5.376089
RightArm 14.840297 -15.328190 54.122052
RightForeArm 188.412248 0.000000 34.853531
RightHand -1.367510 0.000000 5.947743
RightHandThumb1 -24.326973 -0.000000 -32.862282
LeftUpLeg -11.773395 7.455930 6.033022
LeftLeg 4.281945 -0.000000 -0.000000
LeftFoot -4.885148 -6.345049 -27.619889
LeftToeBase 5.488301 -0.000000 -0.000000
RightUpLeg -23.752381 -17.482802 4.856726
RightLeg 5.093117 -0.000000 -0.000000
RightFoot -11.539994 -4.078875 0.919620
RightToeBase 2.386436 -0.000000 -0.000000
4327
root -1.199210 37.397691 -0.672200 25.194800 26.185735 8.663530
Spine -3.631858 5.045635 0.788436
Head -2.996403 -0.603632 -12.042757
LeftShoulder -2.046880 -12.484844 6.117789
LeftArm 1.436510 -26.840745 -48.515249
LeftForeArm -0.918085 -0.000000 76.471476
LeftHand -17.856912 0.000000 50.519055
LeftHandThumb1 -26.253704 0.000000 33.147579
RightShoulder -1.485808 -18.489765 -5.456000
RightArm 14.841881 -15.082882 54.276718
RightForeArm 188.445297 -0.000000 34.638945
RightHand -1.334336 0.000000 5.914715
RightHandThumb1 -24.326973 -0.000000 -32.862282
LeftUpLeg -12.875951 7.086784 5.730884
LeftLeg 5.140611 -0.000000 -0.000000
LeftFoot -5.354251 -5.934575 -27.315950
LeftToeBase 5.737824 -0.000000 -0.000000
RightUpLeg -23.470479 -17.664631 4.902244
RightLeg 5.179334 -0.000000 -0.000000
RightFoot -11.607283 -4.298375 0.924819
RightToeBase 2.433807 -0.000000 -0.000000
4328
root -1.191345 37.384328 -0.708400 24.725973 26.505379 8.562554
Spine -2.904460 5.047515 1.154617
Head -2.628370 -0.541464 -11.806392
LeftShoulder -1.885551 -12.605010 6.124075
LeftArm 1.783615 -26.985532 -49.020648
LeftForeArm -0.865455 -0.000000 76.538689
LeftHand -17.731489 0.000000 50.463946
LeftHandThumb1 -26.253704 0.000000 33.147579
RightShoulder -1.309460 -18.385281 -5.563037
RightArm 14.890106 -14.782549 54.432522
RightForeArm 188.424550 -0.000000 34.434732
RightHand -1.273142 -0.000000 6.063762
RightHandThumb1 -24.326973 -0.000000 -32.862282
LeftUpLeg -13.828256 6.509145 5.504726
LeftLeg 5.996971 -0.000000 -0.000000
LeftFoot -5.881065 -5.525054 -27.099097
LeftToeBase 5.811484 -0.000000 -0.000000
RightUpLeg -23.069177 -17.814705 4.910740
RightLeg 5.225552 -0.000000 -0.000000
RightFoot -11.678112 -4.468217 0.925232
RightToeBase 2.411299 -0.000000 -0.000000
